Coordinates
version=1
nRows=10
nColumns=40
inDegrees=yes

Units are S.I. units (second, meters, Newtons, ...)
If the header above contains a line with 'inDegrees', this indicates whether rotational values are in degrees (yes) or radians (no).

endheader
time	pelvis_tilt	pelvis_list	pelvis_rotation	pelvis_tx	pelvis_ty	pelvis_tz	hip_flexion_r	hip_adduction_r	hip_rotation_r	knee_angle_r	knee_angle_r_beta	ankle_angle_r	subtalar_angle_r	mtp_angle_r	hip_flexion_l	hip_adduction_l	hip_rotation_l	knee_angle_l	knee_angle_l_beta	ankle_angle_l	subtalar_angle_l	mtp_angle_l	lumbar_extension	lumbar_bending	lumbar_rotation	arm_flex_r	arm_add_r	arm_rot_r	elbow_flex_r	pro_sup_r	wrist_flex_r	wrist_dev_r	arm_flex_l	arm_add_l	arm_rot_l	elbow_flex_l	pro_sup_l	wrist_flex_l	wrist_dev_l
      3.91500000	    -35.80619120	     -1.04458799	      2.02349147	     -0.39956671	      0.58588282	     -0.89971147	    101.27016571	     -8.84091999	      4.47713709	    109.94231873	      1.91885545	     44.36971054	      0.00000000	      0.00000000	    103.75388822	    -16.11347123	      2.62183378	    109.77968336	      1.91601693	     41.36707286	      0.00000000	      0.00000000	    -18.53877153	     -2.33203459	     -0.53174739	     -7.66005917	    -45.97357360	     55.55811367	     85.15963621	     87.85799041	      0.00000000	      0.00000000	    -17.92352672	    -46.08349940	     45.11131042	     90.63925074	     87.88850278	      0.00000000	      0.00000000
      3.92000000	    -34.86830135	     -1.15591023	      2.28040241	     -0.39795489	      0.58791407	     -0.90046933	    100.06122773	     -9.25386857	      4.26558115	    109.96875260	      1.91931681	     44.51100263	      0.00000000	      0.00000000	    102.61871710	    -15.86131174	      2.64679103	    109.76422815	      1.91574718	     41.50325145	      0.00000000	      0.00000000	    -19.63346670	     -2.08233204	     -0.35343683	     -8.22145903	    -45.87829844	     54.65012228	     84.98617522	     87.88254697	      0.00000000	      0.00000000	    -16.88427680	    -46.06257667	     46.08752217	     90.35871175	     87.91802223	      0.00000000	      0.00000000
      3.92500000	    -34.84764764	     -1.20892024	      2.17884023	     -0.39799448	      0.58784607	     -0.90012824	    100.01345376	     -9.10222554	      4.18707156	    109.96018106	      1.91916721	     44.73218985	      0.00000000	      0.00000000	    102.64061982	    -15.98448178	      2.74128956	    109.79466059	      1.91627833	     41.57755858	      0.00000000	      0.00000000	    -19.64823831	     -2.09247250	     -0.27258186	     -8.06500090	    -45.86807642	     54.87851901	     84.95028742	     87.81901584	      0.00000000	      0.00000000	    -16.91386291	    -46.08340776	     46.07909435	     90.36388210	     87.85598781	      0.00000000	      0.00000000
      3.93000000	    -34.95937654	     -1.21099928	      2.22182461	     -0.39823575	      0.58762798	     -0.90019314	    100.16977551	     -9.12761101	      4.22538882	    109.96860887	      1.91931430	     44.59567786	      0.00000000	      0.00000000	    102.78614382	    -15.92879194	      2.73020664	    109.80808264	      1.91651259	     41.43567532	      0.00000000	      0.00000000	    -19.52541110	     -2.09079147	     -0.22748026	     -8.20429258	    -45.89499091	     54.78297331	     85.01199121	     87.86832782	      0.00000000	      0.00000000	    -16.69863867	    -46.14333924	     46.34825209	     90.35402545	     87.89394991	      0.00000000	      0.00000000
      3.93500000	    -34.90050484	     -1.20306552	      2.16091323	     -0.39817996	      0.58767602	     -0.90003251	    100.09825070	     -9.02876368	      4.23969206	    109.96004689	      1.91916486	     44.65554610	      0.00000000	      0.00000000	    102.72987780	    -16.00022701	      2.74858920	    109.82998267	      1.91689482	     41.46496861	      0.00000000	      0.00000000	    -19.58738302	     -2.13725790	     -0.20293410	     -8.03273885	    -45.89773300	     55.00794873	     84.96382562	     87.84297810	      0.00000000	      0.00000000	    -16.68449373	    -46.19036327	     46.41047483	     90.39686939	     87.87890431	      0.00000000	      0.00000000
      3.94000000	    -35.07814928	     -1.27550868	      2.12963490	     -0.39849016	      0.58732133	     -0.89989410	    100.30882509	     -8.97211811	      4.18179513	    109.95356914	      1.91905181	     44.52747498	      0.00000000	      0.00000000	    102.98383482	    -16.00944779	      2.85070479	    109.82432309	      1.91679604	     41.41580620	      0.00000000	      0.00000000	    -19.40858903	     -2.09787387	      0.08240498	     -8.65169392	    -45.82362455	     54.25718540	     85.00781720	     87.88451478	      0.00000000	      0.00000000	    -16.32245505	    -46.25457179	     46.78741171	     90.37184693	     87.91189500	      0.00000000	      0.00000000
      3.94500000	    -34.93039007	     -1.21894447	      2.16367213	     -0.39828330	      0.58756536	     -0.89993887	    100.13501460	     -9.00285561	      4.23341840	    109.97514808	      1.91942843	     44.76322394	      0.00000000	      0.00000000	    102.77191022	    -15.99078304	      2.77556377	    109.83133136	      1.91691835	     41.57528291	      0.00000000	      0.00000000	    -19.59728429	     -2.16468487	     -0.00678085	     -8.50829054	    -45.79286968	     54.41291578	     84.91239015	     87.79305144	      0.00000000	      0.00000000	    -16.39249260	    -46.25362915	     46.69435270	     90.32580028	     87.82485347	      0.00000000	      0.00000000
      3.95000000	    -34.96093359	     -1.22046996	      2.19677254	     -0.39837761	      0.58747015	     -0.90001694	    100.17741431	     -9.02569996	      4.26819029	    109.98226513	      1.91955265	     44.67123150	      0.00000000	      0.00000000	    102.81889280	    -15.94328512	      2.77284598	    109.80226410	      1.91641103	     41.49721430	      0.00000000	      0.00000000	    -19.57686869	     -2.15623363	     -0.08346041	     -8.41847656	    -45.80259200	     54.51942199	     84.96265853	     87.84687964	      0.00000000	      0.00000000	    -16.50514476	    -46.18656994	     46.56467275	     90.38018752	     87.87396277	      0.00000000	      0.00000000
      3.95500000	    -35.08554656	     -1.13749243	      2.28240854	     -0.39867125	      0.58719190	     -0.90020784	    100.39389331	     -9.12773264	      4.38000440	    110.01432740	      1.92011224	     44.53120240	      0.00000000	      0.00000000	    102.93219892	    -15.80310885	      2.69613759	    109.80654136	      1.91648569	     41.43807510	      0.00000000	      0.00000000	    -19.45891350	     -2.23307564	     -0.20672923	     -8.38998467	    -45.82013056	     54.53223993	     84.95783344	     87.88040726	      0.00000000	      0.00000000	    -16.58832912	    -46.18377478	     46.44920220	     90.37241954	     87.91296239	      0.00000000	      0.00000000
      3.96000000	    -35.15271808	     -1.17651555	      2.10494221	     -0.39882430	      0.58696203	     -0.89972568	    100.46554944	     -8.89105019	      4.31964629	    110.00251087	      1.91990600	     44.58450409	      0.00000000	      0.00000000	    103.05235264	    -16.02688308	      2.77130663	    109.80271581	      1.91641892	     41.46950893	      0.00000000	      0.00000000	    -19.37386970	     -2.28117889	     -0.65009915	     -6.87373087	    -45.98511518	     56.43960030	     84.82007907	     87.86141345	      0.00000000	      0.00000000	    -17.88686638	    -45.89422279	     45.02233685	     90.49619860	     87.89145073	      0.00000000	      0.00000000
